<svg xmlns="http://www.w3.org/2000/svg" viewBox="0 0 1024 1024" width="1024" height="1024">
  <defs>
    <!-- Neon green glow filter -->
    <filter id="glowGreen" x="-20%" y="-20%" width="140%" height="140%">
      <feGaussianBlur in="SourceGraphic" stdDeviation="8" result="blur1"/>
      <feGaussianBlur in="SourceGraphic" stdDeviation="16" result="blur2"/>
      <feGaussianBlur in="SourceGraphic" stdDeviation="3" result="blur3"/>
      <feMerge>
        <feMergeNode in="blur2"/>
        <feMergeNode in="blur1"/>
        <feMergeNode in="blur3"/>
        <feMergeNode in="SourceGraphic"/>
      </feMerge>
    </filter>
    <!-- Neon pink glow filter -->
    <filter id="glowPink" x="-20%" y="-20%" width="140%" height="140%">
      <feGaussianBlur in="SourceGraphic" stdDeviation="6" result="blur1"/>
      <feGaussianBlur in="SourceGraphic" stdDeviation="12" result="blur2"/>
      <feMerge>
        <feMergeNode in="blur2"/>
        <feMergeNode in="blur1"/>
        <feMergeNode in="SourceGraphic"/>
      </feMerge>
    </filter>
    <!-- Subtle outer glow for the whole icon -->
    <filter id="outerGlow" x="-10%" y="-10%" width="120%" height="120%">
      <feGaussianBlur in="SourceGraphic" stdDeviation="25" result="blur"/>
      <feColorMatrix in="blur" type="matrix" values="0 0 0 0 0  0 0 0 0 1  0 0 0 0 0.67  0 0 0 0.3 0" result="colored"/>
      <feMerge>
        <feMergeNode in="colored"/>
        <feMergeNode in="SourceGraphic"/>
      </feMerge>
    </filter>
    <!-- Scanline pattern -->
    <pattern id="scanlines" patternUnits="userSpaceOnUse" width="1024" height="4">
      <rect width="1024" height="2" fill="#ffffff" opacity="0.02"/>
      <rect y="2" width="1024" height="2" fill="transparent"/>
    </pattern>
    <!-- Grid pattern -->
    <pattern id="grid" patternUnits="userSpaceOnUse" width="64" height="64">
      <rect width="64" height="64" fill="none"/>
      <path d="M 64 0 L 0 0 0 64" fill="none" stroke="#00ffaa" stroke-width="0.5" opacity="0.06"/>
    </pattern>
  </defs>

  <!-- Background: near black -->
  <rect width="1024" height="1024" fill="#0a0a0a"/>

  <!-- Subtle grid background for brutalist texture -->
  <rect width="1024" height="1024" fill="url(#grid)"/>

  <!-- Scanline overlay -->
  <rect width="1024" height="1024" fill="url(#scanlines)"/>

  <!-- Border: sharp brutalist frame with neon green -->
  <rect x="16" y="16" width="992" height="992" fill="none" stroke="#00ffaa" stroke-width="3" opacity="0.25"/>
  <rect x="32" y="32" width="960" height="960" fill="none" stroke="#00ffaa" stroke-width="1" opacity="0.1"/>

  <!-- Corner accents - brutalist sharp corners with pink -->
  <path d="M 16,16 L 16,80 M 16,16 L 80,16" fill="none" stroke="#ff3366" stroke-width="4" opacity="0.6"/>
  <path d="M 1008,16 L 1008,80 M 1008,16 L 944,16" fill="none" stroke="#ff3366" stroke-width="4" opacity="0.6"/>
  <path d="M 16,1008 L 16,944 M 16,1008 L 80,1008" fill="none" stroke="#ff3366" stroke-width="4" opacity="0.6"/>
  <path d="M 1008,1008 L 1008,944 M 1008,1008 L 944,1008" fill="none" stroke="#ff3366" stroke-width="4" opacity="0.6"/>

  <!-- "G" letterform - sharp geometric brutalist construction -->
  <g filter="url(#glowGreen)">
    <!-- G: Built from sharp geometric segments -->
    <!-- Vertical left stroke -->
    <rect x="180" y="290" width="55" height="444" fill="#00ffaa"/>
    <!-- Top horizontal -->
    <rect x="180" y="290" width="280" height="55" fill="#00ffaa"/>
    <!-- Bottom horizontal -->
    <rect x="180" y="679" width="280" height="55" fill="#00ffaa"/>
    <!-- Mid horizontal (the G's crossbar) -->
    <rect x="310" y="510" width="150" height="50" fill="#00ffaa"/>
    <!-- Right vertical stub (G's inner arm) -->
    <rect x="405" y="510" width="55" height="224" fill="#00ffaa"/>
  </g>

  <!-- "S" letterform - sharp geometric brutalist construction -->
  <g filter="url(#glowGreen)">
    <!-- S: Built from sharp angular segments -->
    <!-- Top horizontal -->
    <rect x="530" y="290" width="300" height="55" fill="#00ffaa"/>
    <!-- Top-left vertical -->
    <rect x="530" y="290" width="55" height="225" fill="#00ffaa"/>
    <!-- Middle horizontal -->
    <rect x="530" y="460" width="300" height="55" fill="#00ffaa"/>
    <!-- Bottom-right vertical -->
    <rect x="775" y="460" width="55" height="274" fill="#00ffaa"/>
    <!-- Bottom horizontal -->
    <rect x="530" y="679" width="300" height="55" fill="#00ffaa"/>
  </g>

  <!-- Git branch lines extending from the S -->
  <g filter="url(#glowPink)">
    <!-- Main branch line going up-right from top of S -->
    <line x1="830" y1="317" x2="900" y2="230" stroke="#ff3366" stroke-width="5" stroke-linecap="square"/>
    <!-- Branch node (square, brutalist) -->
    <rect x="892" y="214" width="18" height="18" fill="#ff3366"/>

    <!-- Second branch fork -->
    <line x1="830" y1="317" x2="920" y2="280" stroke="#ff3366" stroke-width="5" stroke-linecap="square"/>
    <!-- Branch node -->
    <rect x="914" y="272" width="16" height="16" fill="#ff3366"/>

    <!-- Branch line from bottom of S going down-right -->
    <line x1="830" y1="706" x2="900" y2="790" stroke="#ff3366" stroke-width="5" stroke-linecap="square"/>
    <!-- Branch node -->
    <rect x="892" y="784" width="18" height="18" fill="#ff3366"/>

    <!-- Commit dots on S path (square brutalist nodes) -->
    <rect x="800" y="310" width="14" height="14" fill="#ff3366" opacity="0.8"/>
    <rect x="800" y="698" width="14" height="14" fill="#ff3366" opacity="0.8"/>
  </g>

  <!-- Subtle ambient glow behind the letters -->
  <ellipse cx="512" cy="512" rx="300" ry="250" fill="#00ffaa" opacity="0.03"/>

  <!-- Accent line at bottom - brutalist divider -->
  <rect x="100" y="830" width="824" height="3" fill="#ff3366" opacity="0.3"/>

  <!-- Small "GitSwitch" label hint - subtle -->
  <rect x="100" y="860" width="120" height="2" fill="#00ffaa" opacity="0.15"/>
  <rect x="240" y="860" width="80" height="2" fill="#ff3366" opacity="0.15"/>
</svg>